<svg width="24" height="24" viewBox="0 0 24 24" fill="none" xmlns="http://www.w3.org/2000/svg">
<path fill-rule="evenodd" clip-rule="evenodd" d="M12.0002 23.6667C6.50044 23.6667 3.75058 23.6667 2.04204 21.9581C0.333496 20.2496 0.333496 17.4997 0.333496 12C0.333496 6.50029 0.333496 3.75043 2.04204 2.04189C3.75058 0.333344 6.50044 0.333344 12.0002 0.333344C17.4999 0.333344 20.2497 0.333344 21.9583 2.04189C23.6668 3.75043 23.6668 6.50029 23.6668 12C23.6668 17.4997 23.6668 20.2496 21.9583 21.9581C20.2497 23.6667 17.4999 23.6667 12.0002 23.6667ZM12.0002 7.62501C12.4834 7.62501 12.8752 8.01676 12.8752 8.50001V11.125H15.5002C15.9834 11.125 16.3752 11.5168 16.3752 12C16.3752 12.4833 15.9834 12.875 15.5002 12.875H12.8752L12.8752 15.5C12.8752 15.9833 12.4834 16.375 12.0002 16.375C11.5169 16.375 11.1252 15.9833 11.1252 15.5V12.875H8.50016C8.01691 12.875 7.62516 12.4833 7.62516 12C7.62516 11.5168 8.01691 11.125 8.50016 11.125H11.1252L11.1252 8.50001C11.1252 8.01676 11.5169 7.62501 12.0002 7.62501Z" fill="white"/>
</svg>
