<svg width="26" height="26" viewBox="0 0 26 26" fill="none" xmlns="http://www.w3.org/2000/svg">
<path d="M9.92327 11.7758C9.81494 11.765 9.68494 11.765 9.56577 11.7758C6.98744 11.6892 4.93994 9.57666 4.93994 6.97666C4.93994 4.32249 7.08494 2.16666 9.74994 2.16666C12.4041 2.16666 14.5599 4.32249 14.5599 6.97666C14.5491 9.57666 12.5016 11.6892 9.92327 11.7758Z" stroke="white" stroke-width="1.5" stroke-linecap="round" stroke-linejoin="round"/>
<path d="M17.7776 4.33334C19.8792 4.33334 21.5692 6.03418 21.5692 8.12501C21.5692 10.1725 19.9442 11.8408 17.9184 11.9167C17.8317 11.9058 17.7342 11.9058 17.6367 11.9167" stroke="white" stroke-width="1.5" stroke-linecap="round" stroke-linejoin="round"/>
<path d="M4.50678 15.7733C1.88511 17.5283 1.88511 20.3883 4.50678 22.1325C7.48594 24.1258 12.3718 24.1258 15.3509 22.1325C17.9726 20.3775 17.9726 17.5175 15.3509 15.7733C12.3826 13.7908 7.49678 13.7908 4.50678 15.7733Z" stroke="white" stroke-width="1.5" stroke-linecap="round" stroke-linejoin="round"/>
<path d="M19.8682 21.6667C20.6482 21.5042 21.3848 21.19 21.9915 20.7242C23.6815 19.4567 23.6815 17.3658 21.9915 16.0983C21.3957 15.6433 20.6698 15.34 19.9007 15.1667" stroke="white" stroke-width="1.5" stroke-linecap="round" stroke-linejoin="round"/>
</svg>
