<svg width="26" height="27" viewBox="0 0 26 27" fill="none" xmlns="http://www.w3.org/2000/svg">
<path d="M9.92376 12.5805C9.81543 12.5697 9.68543 12.5697 9.56626 12.5805C6.98793 12.4938 4.94043 10.3813 4.94043 7.78134C4.94043 5.12718 7.08543 2.97134 9.75043 2.97134C12.4046 2.97134 14.5604 5.12718 14.5604 7.78134C14.5496 10.3813 12.5021 12.4938 9.92376 12.5805Z" stroke="#730202" stroke-width="1.5" stroke-linecap="round" stroke-linejoin="round"/>
<path d="M17.7776 5.13803C19.8792 5.13803 21.5692 6.83886 21.5692 8.9297C21.5692 10.9772 19.9442 12.6455 17.9184 12.7214C17.8317 12.7105 17.7342 12.7105 17.6367 12.7214" stroke="#730202" stroke-width="1.5" stroke-linecap="round" stroke-linejoin="round"/>
<path d="M4.50629 16.578C1.88462 18.333 1.88462 21.193 4.50629 22.9372C7.48546 24.9305 12.3713 24.9305 15.3505 22.9372C17.9721 21.1822 17.9721 18.3222 15.3505 16.578C12.3821 14.5955 7.49629 14.5955 4.50629 16.578Z" stroke="#730202" stroke-width="1.5" stroke-linecap="round" stroke-linejoin="round"/>
<path d="M19.8682 22.4713C20.6482 22.3088 21.3848 21.9947 21.9915 21.5288C23.6815 20.2613 23.6815 18.1705 21.9915 16.903C21.3957 16.448 20.6698 16.1447 19.9007 15.9713" stroke="#730202" stroke-width="1.5" stroke-linecap="round" stroke-linejoin="round"/>
</svg>
