<svg width="26" height="27" viewBox="0 0 26 27" fill="none" xmlns="http://www.w3.org/2000/svg">
<path d="M23.8337 24.638L2.16699 24.638" stroke="white" stroke-width="1.5" stroke-linecap="round"/>
<path d="M18.4163 24.638V7.30468C18.4163 5.26192 18.4163 4.24055 17.7817 3.60595C17.1471 2.97134 16.1258 2.97134 14.083 2.97134H11.9163C9.87359 2.97134 8.85221 2.97134 8.21761 3.60595C7.58301 4.24055 7.58301 5.26192 7.58301 7.30468V24.638" stroke="white" stroke-width="1.5"/>
<path d="M21.9997 13.263C21.9997 13.6772 22.3355 14.013 22.7497 14.013C23.1639 14.013 23.4997 13.6772 23.4997 13.263H21.9997ZM21.7867 9.83649L21.3701 10.4601L21.3701 10.4601L21.7867 9.83649ZM22.3845 10.4343L21.7609 10.851L21.7609 10.851L22.3845 10.4343ZM23.4997 17.5963C23.4997 17.1821 23.1639 16.8463 22.7497 16.8463C22.3355 16.8463 21.9997 17.1821 21.9997 17.5963H23.4997ZM18.958 10.2213C19.7344 10.2213 20.2602 10.2223 20.6621 10.2631C21.0515 10.3027 21.2406 10.3736 21.3701 10.4601L22.2034 9.21289C21.7864 8.93425 21.3219 8.82251 20.8139 8.77084C20.3185 8.72044 19.7031 8.72134 18.958 8.72134V10.2213ZM23.4997 13.263C23.4997 12.5179 23.5006 11.9026 23.4502 11.4071C23.3985 10.8991 23.2868 10.4346 23.0081 10.0176L21.7609 10.851C21.8474 10.9804 21.9183 11.1695 21.9579 11.5589C21.9988 11.9608 21.9997 12.4867 21.9997 13.263H23.4997ZM21.3701 10.4601C21.5248 10.5635 21.6576 10.6963 21.7609 10.851L23.0081 10.0176C22.7953 9.69913 22.5219 9.42569 22.2034 9.21289L21.3701 10.4601ZM21.9997 17.5963V24.638H23.4997V17.5963H21.9997Z" fill="white"/>
<path d="M4.21293 9.83649L4.62961 10.4601L4.62961 10.4601L4.21293 9.83649ZM3.61515 10.4343L4.23875 10.851L4.23875 10.851L3.61515 10.4343ZM4 22.4713C4 22.0571 3.66421 21.7213 3.25 21.7213C2.83579 21.7213 2.5 22.0571 2.5 22.4713H4ZM2.5 18.138C2.5 18.5522 2.83579 18.888 3.25 18.888C3.66421 18.888 4 18.5522 4 18.138H2.5ZM7.04167 8.72134C6.29653 8.72134 5.68122 8.72044 5.18576 8.77084C4.67778 8.82251 4.21327 8.93425 3.79625 9.21289L4.62961 10.4601C4.75908 10.3736 4.94819 10.3027 5.33757 10.2631C5.73949 10.2223 6.26531 10.2213 7.04167 10.2213V8.72134ZM4 13.263C4 12.4867 4.00091 11.9608 4.04179 11.5589C4.0814 11.1695 4.15224 10.9804 4.23875 10.851L2.99155 10.0176C2.71291 10.4346 2.60117 10.8991 2.54949 11.4071C2.49909 11.9026 2.5 12.5179 2.5 13.263H4ZM3.79625 9.21289C3.47778 9.42569 3.20434 9.69913 2.99155 10.0176L4.23875 10.851C4.34211 10.6963 4.47492 10.5635 4.62961 10.4601L3.79625 9.21289ZM2.5 22.4713V24.638H4V22.4713H2.5ZM2.5 13.263V18.138H4V13.263H2.5Z" fill="white"/>
<path d="M13 24.638V21.388" stroke="white" stroke-width="1.5" stroke-linecap="round"/>
<path d="M10.833 6.22134H15.1663" stroke="white" stroke-width="1.5" stroke-linecap="round"/>
<path d="M10.833 15.9713H11.3747M15.1663 15.9713H13.5413" stroke="white" stroke-width="1.5" stroke-linecap="round"/>
<path d="M15.167 9.47134H14.6253M10.8337 9.47134H12.4587" stroke="white" stroke-width="1.5" stroke-linecap="round"/>
<path d="M10.833 12.7213H15.1663" stroke="white" stroke-width="1.5" stroke-linecap="round"/>
</svg>
