<svg width="26" height="26" viewBox="0 0 26 26" fill="none" xmlns="http://www.w3.org/2000/svg">
<path d="M23.8332 23.8333L2.1665 23.8333" stroke="#730202" stroke-width="1.5" stroke-linecap="round"/>
<path d="M18.4168 23.8333V6.49999C18.4168 4.45724 18.4168 3.43586 17.7822 2.80126C17.1476 2.16666 16.1262 2.16666 14.0835 2.16666H11.9168C9.87408 2.16666 8.8527 2.16666 8.2181 2.80126C7.5835 3.43586 7.5835 4.45724 7.5835 6.49999V23.8333" stroke="#730202" stroke-width="1.5"/>
<path d="M22.0002 12.4583C22.0002 12.8725 22.3359 13.2083 22.7502 13.2083C23.1644 13.2083 23.5002 12.8725 23.5002 12.4583H22.0002ZM21.7872 9.03181L21.3706 9.65541L21.3706 9.65541L21.7872 9.03181ZM22.385 9.62959L21.7614 10.0463L21.7614 10.0463L22.385 9.62959ZM23.5002 16.7917C23.5002 16.3774 23.1644 16.0417 22.7502 16.0417C22.3359 16.0417 22.0002 16.3774 22.0002 16.7917H23.5002ZM18.9585 9.41666C19.7349 9.41666 20.2607 9.41756 20.6626 9.45845C21.052 9.49806 21.2411 9.5689 21.3706 9.65541L22.2039 8.4082C21.7869 8.12956 21.3224 8.01783 20.8144 7.96615C20.3189 7.91575 19.7036 7.91666 18.9585 7.91666V9.41666ZM23.5002 12.4583C23.5002 11.7132 23.5011 11.0979 23.4507 10.6024C23.399 10.0944 23.2873 9.62992 23.0086 9.21291L21.7614 10.0463C21.8479 10.1757 21.9188 10.3648 21.9584 10.7542C21.9993 11.1561 22.0002 11.682 22.0002 12.4583H23.5002ZM21.3706 9.65541C21.5252 9.75877 21.6581 9.89158 21.7614 10.0463L23.0086 9.21291C22.7958 8.89444 22.5224 8.621 22.2039 8.4082L21.3706 9.65541ZM22.0002 16.7917V23.8333H23.5002V16.7917H22.0002Z" fill="#730202"/>
<path d="M4.21293 9.03181L4.62961 9.65541L4.62961 9.65541L4.21293 9.03181ZM3.61515 9.62959L4.23875 10.0463L4.23875 10.0463L3.61515 9.62959ZM4 21.6667C4 21.2524 3.66421 20.9167 3.25 20.9167C2.83579 20.9167 2.5 21.2524 2.5 21.6667H4ZM2.5 17.3333C2.5 17.7475 2.83579 18.0833 3.25 18.0833C3.66421 18.0833 4 17.7475 4 17.3333H2.5ZM7.04167 7.91666C6.29653 7.91666 5.68122 7.91575 5.18576 7.96615C4.67778 8.01783 4.21327 8.12956 3.79625 8.4082L4.62961 9.65541C4.75908 9.5689 4.94819 9.49806 5.33757 9.45845C5.73949 9.41756 6.26531 9.41666 7.04167 9.41666V7.91666ZM4 12.4583C4 11.682 4.00091 11.1561 4.04179 10.7542C4.0814 10.3648 4.15224 10.1757 4.23875 10.0463L2.99155 9.21291C2.71291 9.62992 2.60117 10.0944 2.54949 10.6024C2.49909 11.0979 2.5 11.7132 2.5 12.4583H4ZM3.79625 8.4082C3.47778 8.621 3.20434 8.89444 2.99155 9.21291L4.23875 10.0463C4.34211 9.89158 4.47492 9.75877 4.62961 9.65541L3.79625 8.4082ZM2.5 21.6667V23.8333H4V21.6667H2.5ZM2.5 12.4583V17.3333H4V12.4583H2.5Z" fill="#730202"/>
<path d="M13 23.8333V20.5833" stroke="#730202" stroke-width="1.5" stroke-linecap="round"/>
<path d="M10.8335 5.41666H15.1668" stroke="#730202" stroke-width="1.5" stroke-linecap="round"/>
<path d="M10.8335 15.1667H11.3752M15.1668 15.1667H13.5418" stroke="#730202" stroke-width="1.5" stroke-linecap="round"/>
<path d="M15.1665 8.66666H14.6248M10.8332 8.66666H12.4582" stroke="#730202" stroke-width="1.5" stroke-linecap="round"/>
<path d="M10.8335 11.9167H15.1668" stroke="#730202" stroke-width="1.5" stroke-linecap="round"/>
</svg>
