<svg width="28" height="28" viewBox="0 0 28 28" fill="none" xmlns="http://www.w3.org/2000/svg">
<path d="M6.21777 2.33334H21.7811C23.0761 2.33334 24.1378 3.395 24.1378 4.69V7.28C24.1378 8.225 23.5427 9.40334 22.9594 9.98667" stroke="#730202" stroke-width="1.5" stroke-miterlimit="10" stroke-linecap="round" stroke-linejoin="round"/>
<path d="M16.7063 22.2484C16.7063 22.96 16.2396 23.8934 15.6446 24.255L13.9997 25.3167C12.4713 26.2617 10.348 25.2 10.348 23.31V17.0683C10.348 16.24 9.88133 15.1784 9.40299 14.595L4.92296 9.88168C4.32796 9.28668 3.86133 8.23669 3.86133 7.52502" stroke="#730202" stroke-width="1.5" stroke-miterlimit="10" stroke-linecap="round" stroke-linejoin="round"/>
<path d="M18.748 19.2733C20.8099 19.2733 22.4813 17.6019 22.4813 15.54C22.4813 13.4782 20.8099 11.8067 18.748 11.8067C16.6861 11.8067 15.0146 13.4782 15.0146 15.54C15.0146 17.6019 16.6861 19.2733 18.748 19.2733Z" stroke="#730202" stroke-width="1.5" stroke-linecap="round" stroke-linejoin="round"/>
<path d="M23.1813 19.9733L22.0146 18.8067" stroke="#730202" stroke-width="1.5" stroke-linecap="round" stroke-linejoin="round"/>
</svg>
