<svg width="26" height="30" viewBox="0 0 26 30" fill="none" xmlns="http://www.w3.org/2000/svg">
<g filter="url(#filter0_d_1_66)">
<path d="M21.8571 18.0887C21.8571 19.1025 21.5642 19.9721 20.9782 20.6975C20.4016 21.423 19.7041 21.7857 18.8856 21.7857H6.97154C6.15309 21.7857 5.45089 21.423 4.86496 20.6975C4.28832 19.9721 4 19.1025 4 18.0887C4 17.2982 4.0372 16.5541 4.11161 15.8566C4.19531 15.1497 4.34412 14.4429 4.55804 13.736C4.77195 13.0199 5.04167 12.4107 5.36719 11.9085C5.70201 11.3969 6.13914 10.9831 6.67857 10.6669C7.22731 10.3413 7.8551 10.1786 8.56194 10.1786C9.78032 11.369 11.2359 11.9643 12.9286 11.9643C14.6213 11.9643 16.0768 11.369 17.2952 10.1786C18.002 10.1786 18.6252 10.3413 19.1646 10.6669C19.7134 10.9831 20.1505 11.3969 20.476 11.9085C20.8108 12.4107 21.0852 13.0199 21.2991 13.736C21.513 14.4429 21.6572 15.1497 21.7316 15.8566C21.8153 16.5541 21.8571 17.2982 21.8571 18.0887ZM16.7093 1.93359C17.7602 2.97526 18.2857 4.23549 18.2857 5.71429C18.2857 7.19308 17.7602 8.45796 16.7093 9.50893C15.6676 10.5506 14.4074 11.0714 12.9286 11.0714C11.4498 11.0714 10.1849 10.5506 9.13393 9.50893C8.09226 8.45796 7.57143 7.19308 7.57143 5.71429C7.57143 4.23549 8.09226 2.97526 9.13393 1.93359C10.1849 0.882625 11.4498 0.357142 12.9286 0.357142C14.4074 0.357142 15.6676 0.882625 16.7093 1.93359Z" fill="white"/>
</g>
<defs>
<filter id="filter0_d_1_66" x="0" y="0.357147" width="25.8574" height="29.4286" filterUnits="userSpaceOnUse" color-interpolation-filters="sRGB">
<feFlood flood-opacity="0" result="BackgroundImageFix"/>
<feColorMatrix in="SourceAlpha" type="matrix" values="0 0 0 0 0 0 0 0 0 0 0 0 0 0 0 0 0 0 127 0" result="hardAlpha"/>
<feOffset dy="4"/>
<feGaussianBlur stdDeviation="2"/>
<feComposite in2="hardAlpha" operator="out"/>
<feColorMatrix type="matrix" values="0 0 0 0 0 0 0 0 0 0 0 0 0 0 0 0 0 0 0.25 0"/>
<feBlend mode="normal" in2="BackgroundImageFix" result="effect1_dropShadow_1_66"/>
<feBlend mode="normal" in="SourceGraphic" in2="effect1_dropShadow_1_66" result="shape"/>
</filter>
</defs>
</svg>
